<svg xmlns="http://www.w3.org/2000/svg" viewBox="0 0 200 200">
  <defs>
    <!-- Gradients for depth -->
    <linearGradient id="capGradient" x1="0%" y1="0%" x2="0%" y2="100%">
      <stop offset="0%" style="stop-color:#2D4356;stop-opacity:1" />
      <stop offset="100%" style="stop-color:#1a2633;stop-opacity:1" />
    </linearGradient>
    <linearGradient id="faceGradient" x1="0%" y1="0%" x2="0%" y2="100%">
      <stop offset="0%" style="stop-color:#FFB4A2;stop-opacity:1" />
      <stop offset="100%" style="stop-color:#FF9B9B;stop-opacity:1" />
    </linearGradient>
    <linearGradient id="bookBlue" x1="0%" y1="0%" x2="100%" y2="100%">
      <stop offset="0%" style="stop-color:#5B9BD5;stop-opacity:1" />
      <stop offset="100%" style="stop-color:#4A8BC2;stop-opacity:1" />
    </linearGradient>
    <linearGradient id="bookPink" x1="0%" y1="0%" x2="100%" y2="100%">
      <stop offset="0%" style="stop-color:#E8A5A5;stop-opacity:1" />
      <stop offset="100%" style="stop-color:#D99292;stop-opacity:1" />
    </linearGradient>
  </defs>
  
  <!-- Books at bottom -->
  <g id="books">
    <!-- Blue book -->
    <rect x="45" y="140" width="80" height="15" rx="2" fill="url(#bookBlue)"/>
    <rect x="47" y="140" width="3" height="15" fill="#4A8BC2" opacity="0.5"/>
    
    <!-- Pink book -->
    <rect x="65" y="125" width="85" height="15" rx="2" fill="url(#bookPink)"/>
    <rect x="67" y="125" width="3" height="15" fill="#D99292" opacity="0.5"/>
    
    <!-- Beige book pages -->
    <rect x="128" y="127" width="18" height="11" fill="#F5E6D3"/>
    <line x1="135" y1="127" x2="135" y2="138" stroke="#E8D4BA" stroke-width="0.5"/>
  </g>
  
  <!-- Plant -->
  <g id="plant">
    <ellipse cx="40" cy="142" rx="6" ry="3" fill="#8BC34A" opacity="0.3"/>
    <!-- Stem -->
    <line x1="40" y1="142" x2="40" y2="125" stroke="#7CB342" stroke-width="2.5" stroke-linecap="round"/>
    <!-- Leaves -->
    <ellipse cx="36" cy="130" rx="8" ry="12" fill="#8BC34A" transform="rotate(-30 36 130)"/>
    <ellipse cx="44" cy="135" rx="7" ry="10" fill="#9CCC65" transform="rotate(25 44 135)"/>
    <ellipse cx="38" cy="125" rx="6" ry="9" fill="#7CB342" transform="rotate(-15 38 125)"/>
  </g>
  
  <!-- Main character -->
  <g id="character">
    <!-- Body/Face -->
    <ellipse cx="100" cy="95" rx="35" ry="32" fill="url(#faceGradient)"/>
    
    <!-- Eyes -->
    <circle cx="88" cy="90" r="4" fill="#2D4356"/>
    <circle cx="112" cy="90" r="4" fill="#2D4356"/>
    <circle cx="89" cy="89" r="1.5" fill="white" opacity="0.8"/>
    <circle cx="113" cy="89" r="1.5" fill="white" opacity="0.8"/>
    
    <!-- Smile -->
    <path d="M 85 100 Q 100 108 115 100" stroke="#2D4356" stroke-width="3" fill="none" stroke-linecap="round"/>
    
    <!-- Cheeks -->
    <circle cx="78" cy="98" r="5" fill="#FF8A80" opacity="0.4"/>
    <circle cx="122" cy="98" r="5" fill="#FF8A80" opacity="0.4"/>
  </g>
  
  <!-- Graduation cap -->
  <g id="graduation-cap">
    <!-- Cap base -->
    <rect x="70" y="50" width="60" height="10" rx="2" fill="url(#capGradient)"/>
    
    <!-- Cap top (mortarboard) -->
    <path d="M 50 60 L 100 48 L 150 60 L 100 72 Z" fill="url(#capGradient)"/>
    <path d="M 50 60 L 100 48 L 150 60 L 100 72 Z" fill="#1a2633" opacity="0.2"/>
    
    <!-- Button on top -->
    <circle cx="100" cy="60" r="3" fill="#2D4356"/>
    
    <!-- Tassel -->
    <line x1="142" y1="56" x2="148" y2="48" stroke="#FFC857" stroke-width="2.5" stroke-linecap="round"/>
    <circle cx="149" cy="46" r="4.5" fill="#FFC857"/>
    <circle cx="149" cy="46" r="3" fill="#FFD700"/>
  </g>
</svg>

